<svg xmlns="http://www.w3.org/2000/svg" width="463.33615" height="267.43439" viewBox="0 0 463.33615 267.43439"><path d="M93.11 233.354c-1.646-2.445 7.989-19.02 15.828-27.42 1.588-1.703 5.57-6.232 8.884-10.032 11.21-12.852 26.009-28.388 41.5-43.569 11.734-11.498 13.553-13.164 23.533-21.56 1.428-1.203 3.63-2.9 5.423-4.86 1.945-2.125 3.355-4.352 4.56-6.436 1.062-1.837 2.757-3.543 3.005-4.272.38-1.119 20.052-30.229 25.716-37.462 3.1-3.962 6.34-8.168 7.198-9.348.858-1.18 2.667-3.335 4.02-4.788 1.354-1.453 2.213-2.642 1.91-2.642-1.831 0-32.97 20.85-50.002 33.479-6.106 4.528-17.511 13.232-25.345 19.343-12.89 10.057-19.727 15.203-39.203 29.513-10.983 8.068-28.271 19.35-34.656 22.616-4.14 2.117-7.139 3.12-9.465 3.207-2.207.084-3.794-.51-5.651-2.368-2.47-2.47-2.897-3.679-2.897-7.655 0-6.872 4.368-17.409 11.103-26.783 11.142-15.508 18.2-24.23 28.728-35.504 4.354-4.663 5.436-6.444 6.258-8.43 1.363-3.293-.598-2.325-3.397-2.02-8.027.905-36.782 17.356-52.853 30.238-7.14 5.724-20.57 18.996-21.187 20.94-.149.468-.495.944-.955 1.224-.808.494-1.837.518-1.837-.21 0-2.722 11.203-14.35 22.436-23.288 6.47-5.149 15.787-11.528 20.783-14.232 1.823-.986 3.909-2.31 4.637-2.943 1.145-.995 4.453-2.94 10.328-6.07 2.129-1.133 10.939-5.189 12.942-5.956.894-.343 3.48-.852 5.747-1.132 3.214-.396 4.356-.225 5.189.778.906 1.093.634 1.937-1.81 5.618-1.581 2.382-4.687 6.31-6.9 8.728-9.94 10.857-21.542 25.755-28.426 36.504-8.595 13.42-10.978 24.112-6.476 29.06 1.986 2.184 4.217 2.3 8.883.463 6.943-2.733 29.39-17.501 48.89-32.165 6.987-5.253 12.977-9.562 13.312-9.577.335-.014 1.871-1.294 3.415-2.845 1.543-1.55 3.071-2.819 3.396-2.819.325 0 1.099-.508 1.72-1.128.62-.621 4.761-3.887 9.202-7.258s11.733-8.962 16.203-12.425c11.052-8.56 29.299-21.458 30.355-21.458.473 0 1.153-.46 1.51-1.023.358-.563 3.21-2.71 6.34-4.772 9.453-6.229 17.469-11.275 17.91-11.275.228 0 1.885-.973 3.682-2.162 2.378-1.574 2.952-2.122 3.604-1.47.21.21 1.149 1.022 1.029 1.552-.077.34-.671.609-1.039 1.042-.84.988-1.999 2.405-3.81 4.445-9.733 10.965-30.209 39.187-39.653 54.653-2.343 3.838-2.443 3.893 10.961-6.016 5.812-4.297 13.718-9.9 17.568-12.452 5.116-3.39 7.583-4.86 8.706-4.596.479.113 1.09.69 1.037 1.449-.059.84-.851 1.938-1.784 3.63-2.157 3.912-3.004 7.071-1.895 7.071.256 0 2.084-.949 4.062-2.108 1.128-.661 2.686-1.667 4.723-2.382 4.851-1.702 11.236-2.937 12.463-2.466.586.225 1.607-.737 2.354-2.217 2.664-5.276 10.743-15.137 19.914-24.519 9.092-9.3 19.267-18.135 24.3-20.765 1.118-.584 2.215-1.325 2.439-1.648.223-.322 2.854-2.08 5.846-3.905 13.462-8.213 26.648-13.32 34.894-13.346 7.144-.023 11.118 2.044 12.012 6.721.587 3.077-.273 7.167-2.033 12.944-3.126 10.262-12.098 32.985-17.485 44.28-.837 1.755-1.392 3.319-1.235 3.476.158.158 2.557-.997 5.333-2.566 4.826-2.728 13.865-7.179 20.63-10.115 3.667-1.591 6.206-2.43 8.094-3.01 3.72-1.142 5.082-1.384 5.69-.433.88 1.377.88 1.83-.637 3.86-4.262 5.712-5.856 9.863-5.318 11.264.469 1.222 1.483 1.376 5.149.802 2.338-.367 6.862-1.266 9.991-1.378 1.213-.044 3.26.564 5.064.563 2.85-.002 5.595-.97 8.196-1.15 5.965-.413 8.603.104 11.247 1.067 2.419.88 4.157 1.035 5.929.527 1.379-.395 6.057-.945 10.396-1.222 1.646.134 7.25-.766 7.038-.018-.059.207.271.717-.887 1.142-1.42.521-4.695 1.037-7.013 1.253-3.234.301-7.099.935-8.588 1.408-2.153.683-3.467.57-6.404-.552-3.043-1.162-5.205-1.812-11.313-1.319-2.685.217-6.868 1.61-9.821 1.77-1.533.082-2.824-1.02-3.893-.986-3.13.102-6.585 1.087-8.918 1.446-8.514 1.31-11.061-3.7-5.715-11.638 1.565-2.324 2.845-4.386 2.845-4.584 0-1.504-19.6 6.866-31.462 13.436-4.1 2.27-6.316 3.234-7.603 4.667-1.05 1.17-1.36 2.676-2.558 5.263-4.084 8.822-17.336 35.196-20.675 41.146-3.974 7.083-11.123 18.03-13 19.907-.835.835-.966 1.158-.817 1.332.52.614-13.301 16.815-18.7 21.92-14.428 13.644-30.973 22.358-39.42 20.764-1.627-.307-3.95-1.551-5.164-2.764-2.004-2.005-2.177-2.652-1.894-7.098.42-6.603 5.88-17.631 14.288-28.862 3.88-5.182 12.018-14.512 20.29-22.95 5.755-5.873 11.446-10.99 16.35-15.327 10.367-9.169 33.411-25.666 45.754-32.755 1.6-.918 2.845-1.375 3.775-2.544.957-1.203 1.592-3.143 2.85-5.897 9.577-20.964 18.908-46.163 19.788-53.435.405-3.347.52-4.749-1.154-6.097-2.14-1.723-2.008-2.112-7.808-2.186-7.971-.102-12.966 1.56-24.457 7.278-16.236 8.08-27.971 16.852-42.302 31.618-14.038 14.463-21.135 24.259-20.22 27.907.384 1.527.194 2.26-.754 2.26-.697 0-1.621-.85-2.054-1.624-.746-1.333-1.081-1.33-6.34.039-3.054.795-7.898 2.518-10.662 4.026-3.82 2.084-5.549 2.427-7.112 1.556-1.924-1.073-1.576-4.494-.09-7.475.667-1.337 1.041-2.43.832-2.43-.616 0-12.284 7.977-20.63 14.104-11.436 8.396-15.999 11.161-19.32 14.753-2.49 2.692-4.239 6.029-7.908 11.57-13.406 20.247-34.314 48.072-45.055 59.963-4.971 5.503-11.89 13.107-18.285 19.185-7.052 6.703-13.466 11.69-15.93 13.126-3.254 1.895-6.04 3.17-7.92 3.262-1.035.05-1.846-.408-2.191-.966zm15.918-9.003c7.614-6.085 18.527-17.076 26.993-27.187 4.098-4.894 8.457-9.952 9.686-11.24 1.23-1.287 2.235-2.503 2.235-2.702 0-.821 8.336-10.893 9.016-10.893.406 0 .654-.275.55-.61-.244-.791 6.027-9.145 6.865-9.145.352 0 .64-.548.64-1.217 0-.67 1.219-2.59 2.71-4.267 1.49-1.678 2.908-3.6 3.152-4.27.244-.671 3.393-5.518 6.998-10.77 3.605-5.254 6.342-9.552 6.084-9.552-1.749 0-38.614 36.017-52.417 51.21-24.1 26.529-33.673 39.512-35.315 46.204-.375 1.532-.5 2.103-.198 2.282.527.311 2.063-.786 3.74-1.636 2.245-1.137 6.412-3.93 9.261-6.207zm141.743-14.625c17.272-7.926 36.724-28.261 53.682-56.118 6.575-10.8 24.693-47.122 23.505-47.122-.197 0-3.744 2.177-7.884 4.839-30.843 19.83-59.541 45.573-76.163 68.32-8.851 12.112-14.174 25.478-11.976 30.076 2.125 4.444 9.157 4.446 18.836.006zm153.893-131.66c0-.67 1.465-2.3 3.078-4.084 2.328-2.577 2.676-3.345 1.689-3.723-.684-.263-1.782-1.821-2.44-3.463-.657-1.642-1.965-3.682-2.907-4.534-.592-.535-1.11-1.311-1.424-2.243-.633-1.885-.603-4.136.118-4.414.219-.084.506.229.866.528.7.58 1.801 2.078 2.447 3.326 1.478 2.86 3.444 3.919 7.573 4.08 2.647.104 3.932-.426 6.87-2.832 1.925-1.579 2.623-2.709 3.305-2.78.48-.05 1.686 1.175 1.758 1.547.1.52.02.619-1.167 1.88-.625.663-1.382 1.92-2.543 3.027-1.445 1.377-3.408 3.081-5.776 5.438-2.781 2.77-5.683 5.159-7.526 7.137-.829.89-1.071 2.023-1.637 2.504-.636.54-1.476.289-1.577.289-.389 0-.707-1.014-.707-1.684zm7.446-11.168c.12-.075.753-.12 1.11-.361.53-.36.597-.916.508-.988-.246-.2-1.75.405-2.779.155-1.63-.396-1.863-.945-2.157-.789-.325.174-.043 1.085.455 1.686.782.944 1.459 1.184 2.863.297z"/></svg>